<svg width="111" height="102" viewBox="0 0 111 102" fill="none" xmlns="http://www.w3.org/2000/svg">
<path d="M55.9551 98.8125C45.757 98.8125 35.7879 96.0084 27.3085 90.7547C18.8291 85.501 12.2202 78.0337 8.31756 69.2971C4.41492 60.5605 3.39381 50.947 5.38336 41.6723C7.37291 32.3975 12.2838 23.8782 19.4949 17.1915C26.7061 10.5048 35.8936 5.95108 45.8958 4.10623C55.8979 2.26137 66.2654 3.20822 75.6872 6.82703C85.109 10.4458 93.162 16.5741 98.8278 24.4368C104.494 32.2995 107.518 41.5436 107.518 51C107.518 63.6807 102.085 75.842 92.4153 84.8086C82.7455 93.7752 69.6303 98.8125 55.9551 98.8125ZM55.9551 9.56252C47.1167 9.56252 38.4769 11.9928 31.1281 16.546C23.7792 21.0992 18.0515 27.5709 14.6692 35.1426C11.2869 42.7143 10.402 51.046 12.1263 59.0841C13.8505 67.1222 18.1066 74.5056 24.3563 80.3008C30.6059 86.0959 38.5685 90.0424 47.237 91.6413C55.9055 93.2402 64.8907 92.4196 73.0563 89.2833C81.2218 86.147 88.2011 80.8358 93.1114 74.0215C98.0217 67.2071 100.643 59.1956 100.643 51C100.643 40.0101 95.9345 29.4703 87.5539 21.6993C79.1734 13.9282 67.807 9.56252 55.9551 9.56252Z" fill="white"/>
<path d="M55.9551 76.5C54.5953 76.5 53.2661 76.1261 52.1355 75.4256C51.0049 74.7251 50.1238 73.7295 49.6034 72.5646C49.0831 71.3997 48.9469 70.1179 49.2122 68.8813C49.4775 67.6447 50.1322 66.5088 51.0937 65.6172C52.0552 64.7256 53.2802 64.1185 54.6138 63.8725C55.9475 63.6265 57.3298 63.7528 58.586 64.2353C59.8423 64.7178 60.916 65.5349 61.6714 66.5832C62.4269 67.6316 62.8301 68.8641 62.8301 70.125C62.8301 71.8158 62.1058 73.4373 60.8164 74.6328C59.5271 75.8284 57.7784 76.5 55.9551 76.5Z" fill="white"/>
<path d="M55.9551 57.375C55.0434 57.375 54.1691 57.0392 53.5244 56.4414C52.8797 55.8436 52.5176 55.0329 52.5176 54.1875V25.5C52.5176 24.6546 52.8797 23.8439 53.5244 23.2461C54.1691 22.6483 55.0434 22.3125 55.9551 22.3125C56.8668 22.3125 57.7411 22.6483 58.3858 23.2461C59.0304 23.8439 59.3926 24.6546 59.3926 25.5V54.1875C59.3926 55.0329 59.0304 55.8436 58.3858 56.4414C57.7411 57.0392 56.8668 57.375 55.9551 57.375Z" fill="white"/>
</svg>
