<svg width="56" height="39" viewBox="0 0 56 39" fill="none" xmlns="http://www.w3.org/2000/svg">
<path d="M2.4998 0.700012C1.56093 0.700012 0.799805 1.34921 0.799805 2.15001C0.799805 2.95082 1.56093 3.60001 2.4998 3.60001H53.4998C54.4385 3.60001 55.1998 2.95082 55.1998 2.15001C55.1998 1.34921 54.4385 0.700012 53.4998 0.700012H2.4998ZM2.4998 12.3H53.4998C54.4385 12.3 55.1998 12.9492 55.1998 13.75C55.1998 14.5508 54.4385 15.2 53.4998 15.2H2.4998C1.56093 15.2 0.799805 14.5508 0.799805 13.75C0.799805 12.9492 1.56093 12.3 2.4998 12.3ZM0.799805 25.35C0.799805 24.5493 1.56093 23.9 2.4998 23.9H53.4998C54.4385 23.9 55.1998 24.5493 55.1998 25.35C55.1998 26.1507 54.4385 26.8 53.4998 26.8H2.4998C1.56093 26.8 0.799805 26.1507 0.799805 25.35ZM2.4998 35.5C1.56093 35.5 0.799805 36.1493 0.799805 36.95C0.799805 37.7507 1.56093 38.4 2.4998 38.4H53.4998C54.4385 38.4 55.1998 37.7507 55.1998 36.95C55.1998 36.1493 54.4385 35.5 53.4998 35.5H2.4998Z" fill="#F0FFF1"/>
</svg> 